<svg width="75" height="40" viewBox="0 0 75 40" fill="none" xmlns="http://www.w3.org/2000/svg">
<path d="M32.8422 40L18.6316 15H8.52637L19.1116 33.625C21.3474 37.5625 25.5537 40 30.1264 40H32.8422Z" fill="url(#paint0_linear_401_2211)"/>
<path d="M49.2632 0H0L2.05895 3.625C4.29474 7.5625 8.50105 10 13.0737 10H49.1242C50.3874 10 51.5495 10.85 51.7516 12.075C52.0168 13.6375 50.7916 15 49.2632 15H23.6842L25.7432 18.625C27.9789 22.5625 32.1853 25 36.7579 25H49.2632C56.2358 25 61.8947 19.4 61.8947 12.5C61.8947 5.6 56.2358 0 49.2632 0Z" fill="#AAB903"/>
<path d="M61.8947 15H23.6842L25.7432 18.625C27.9789 22.5625 32.1853 25 36.7579 25H61.7558C63.0189 25 64.181 25.85 64.3832 27.075C64.6484 28.6375 63.4231 30 61.8947 30H32.2105L34.2695 33.625C36.5053 37.5625 40.7116 40 45.2842 40H61.8947C68.8674 40 74.5263 34.4 74.5263 27.5C74.5263 20.6 68.8674 15 61.8947 15Z" fill="url(#paint1_linear_401_2211)"/>
<defs>
<linearGradient id="paint0_linear_401_2211" x1="20.6843" y1="15" x2="20.6843" y2="40" gradientUnits="userSpaceOnUse">
<stop stop-color="#758D00"/>
<stop offset="1" stop-color="#466A0B"/>
</linearGradient>
<linearGradient id="paint1_linear_401_2211" x1="49.1053" y1="15" x2="49.1053" y2="40" gradientUnits="userSpaceOnUse">
<stop stop-color="#758D00"/>
<stop offset="1" stop-color="#466A0B"/>
</linearGradient>
</defs>
</svg>
