<svg width="216" height="40" viewBox="0 0 216 40" fill="none" xmlns="http://www.w3.org/2000/svg">
<g clip-path="url(#clip0_389_2058)">
<path d="M32.8422 40L18.6316 15H8.52637L19.1116 33.625C21.3474 37.5625 25.5537 40 30.1264 40H32.8422Z" fill="url(#paint0_linear_389_2058)"/>
<path d="M49.2632 0H0L2.05895 3.625C4.29474 7.5625 8.50105 10 13.0737 10H49.1242C50.3874 10 51.5495 10.85 51.7516 12.075C52.0168 13.6375 50.7916 15 49.2632 15H23.6842L25.7432 18.625C27.9789 22.5625 32.1853 25 36.7579 25H49.2632C56.2358 25 61.8947 19.4 61.8947 12.5C61.8947 5.6 56.2358 0 49.2632 0Z" fill="#AAB903"/>
<path d="M61.8947 15H23.6842L25.7432 18.625C27.9789 22.5625 32.1853 25 36.7579 25H61.7558C63.0189 25 64.181 25.85 64.3832 27.075C64.6484 28.6375 63.4231 30 61.8947 30H32.2105L34.2695 33.625C36.5053 37.5625 40.7116 40 45.2842 40H61.8947C68.8674 40 74.5263 34.4 74.5263 27.5C74.5263 20.6 68.8674 15 61.8947 15Z" fill="url(#paint1_linear_389_2058)"/>
<path d="M94.7368 12.5H89.6842V32.5H94.7368V12.5Z" fill="#466A0B"/>
<path d="M94.7368 5.01245H89.6842V9.99995H94.7368V5.01245Z" fill="#466A0B"/>
<path d="M128.842 12.5H123.789V32.5H128.842V12.5Z" fill="#466A0B"/>
<path d="M128.842 5.01245H123.789V9.99995H128.842V5.01245Z" fill="#466A0B"/>
<path d="M109.87 32.5C108.379 32.5 107.002 32.2125 105.764 31.6375C104.514 31.0625 103.516 30.2125 102.783 29.0875L103.579 28.1125V32.5H98.5264V5H103.579V15.7L102.821 14.6875C103.528 13.5875 104.488 12.725 105.701 12.1125C106.914 11.5 108.316 11.2 109.907 11.2C111.853 11.2 113.608 11.675 115.175 12.625C116.741 13.575 117.979 14.85 118.901 16.45C119.823 18.05 120.291 19.85 120.291 21.85C120.291 23.85 119.836 25.625 118.926 27.25C118.017 28.875 116.779 30.1625 115.213 31.1C113.646 32.0375 111.865 32.5 109.87 32.5ZM109.301 28C110.438 28 111.448 27.7375 112.307 27.2125C113.179 26.6875 113.874 25.9625 114.366 25.0375C114.872 24.1125 115.124 23.05 115.124 21.85C115.124 20.65 114.872 19.625 114.366 18.7C113.861 17.775 113.179 17.05 112.307 16.525C111.436 16 110.438 15.7375 109.301 15.7375C108.164 15.7375 107.242 16 106.358 16.525C105.486 17.05 104.804 17.775 104.312 18.7C103.819 19.625 103.579 20.675 103.579 21.85C103.579 23.025 103.832 24.1125 104.312 25.0375C104.804 25.9625 105.486 26.6875 106.358 27.2125C107.23 27.7375 108.202 28 109.301 28Z" fill="#466A0B"/>
<path d="M132.632 32.5V5H137.684V22.7125L135.789 22.15L145.491 12.1H151.667L144.051 20.3125L151.819 32.5H146.135L139.389 21.925L142.345 21.325L136.131 27.9625L137.684 24.925V32.5H132.632Z" fill="#466A0B"/>
<path d="M163.49 32.5C161.368 32.5 159.499 32.025 157.895 31.075C156.29 30.125 155.053 28.8375 154.168 27.2125C153.284 25.5875 152.842 23.7875 152.842 21.8125C152.842 19.8375 153.297 17.95 154.206 16.3625C155.116 14.775 156.341 13.5125 157.882 12.5875C159.423 11.6625 161.166 11.2 163.112 11.2C164.728 11.2 166.156 11.4625 167.381 11.9875C168.606 12.5125 169.642 13.2375 170.514 14.1625C171.373 15.0875 172.029 16.1375 172.484 17.325C172.939 18.5125 173.065 19.875 173.065 21.25V23.75H156.985V20H170.097L167.709 21.25C167.962 20.1 167.924 19.075 167.57 18.175C167.229 17.275 166.674 16.5625 165.903 16.0375C165.133 15.5125 164.21 15.25 163.112 15.25C162.013 15.25 161.154 15.5125 160.345 16.0375C159.537 16.5625 158.93 17.3125 158.501 18.2875C158.084 19.2625 157.92 20.45 158.021 21.85C157.92 23.1 158.084 24.2125 158.539 25.175C158.981 26.1375 159.638 26.8625 160.421 27.5125C161.305 28.2375 162.493 28.7625 164.097 28.7625C165.234 28.7625 173.053 28.7625 173.053 28.7625V32.5125H163.49V32.5Z" fill="#466A0B"/>
<path d="M185.684 39.9999V11.25H190.737V15.7L190.282 14.6875C190.989 13.5875 191.949 12.725 193.162 12.1125C194.375 11.5 195.777 11.2 197.368 11.2C199.314 11.2 201.069 11.675 202.636 12.625C204.202 13.575 205.44 14.85 206.362 16.45C207.284 18.05 207.752 19.8499 207.752 21.8499C207.752 23.8499 207.297 25.6249 206.387 27.2499C205.478 28.8749 204.24 30.1624 202.674 31.0999C201.107 32.0374 199.326 32.5 197.331 32.5C195.84 32.5 194.463 32.2124 193.225 31.6374C191.975 31.0624 190.977 30.2124 190.244 29.0874L191.04 28.1124V39.9999H185.684ZM196.762 27.9999C197.899 27.9999 198.909 27.7375 199.768 27.2125C200.64 26.6875 201.335 25.9625 201.827 25.0375C202.333 24.1125 202.585 23.0499 202.585 21.8499C202.585 20.6499 202.333 19.625 201.827 18.7C201.322 17.775 200.64 17.05 199.768 16.525C198.897 16 197.899 15.7375 196.762 15.7375C195.625 15.7375 194.703 16 193.819 16.525C192.947 17.05 192.265 17.775 191.773 18.7C191.28 19.625 191.04 20.6749 191.04 21.8499C191.04 23.0249 191.293 24.1125 191.773 25.0375C192.265 25.9625 192.947 26.6875 193.819 27.2125C194.691 27.7375 195.663 27.9999 196.762 27.9999Z" fill="#466A0B"/>
<path d="M210.947 32.5V5H216V32.5H210.947Z" fill="#466A0B"/>
<path d="M181.895 27.5125H176.842V32.5H181.895V27.5125Z" fill="#466A0B"/>
</g>
<defs>
<linearGradient id="paint0_linear_389_2058" x1="20.6843" y1="15" x2="20.6843" y2="40" gradientUnits="userSpaceOnUse">
<stop stop-color="#758D00"/>
<stop offset="1" stop-color="#466A0B"/>
</linearGradient>
<linearGradient id="paint1_linear_389_2058" x1="49.1053" y1="15" x2="49.1053" y2="40" gradientUnits="userSpaceOnUse">
<stop stop-color="#758D00"/>
<stop offset="1" stop-color="#466A0B"/>
</linearGradient>
<clipPath id="clip0_389_2058">
<rect width="216" height="40" fill="white"/>
</clipPath>
</defs>
</svg>
